<svg width="1200" height="820" viewBox="0 0 1200 820" fill="none" xmlns="http://www.w3.org/2000/svg">
  <rect width="1200" height="820" fill="#02070B"/>
  <rect x="0" y="0" width="1200" height="820" fill="url(#grid)" opacity="0.55"/>
  <rect x="0" y="0" width="1200" height="820" fill="url(#glow)"/>
  <rect x="20" y="28" width="205" height="760" fill="#050C14" stroke="#14384A" stroke-width="2"/>
  <rect x="42" y="62" width="54" height="54" rx="10" fill="#08281E" stroke="#2EF7A3"/>
  <path d="M69 78L82 83V96C82 105 75 110 69 112C63 110 56 105 56 96V83L69 78Z" stroke="#55FFC0" stroke-width="3" fill="none"/>
  <text x="112" y="88" font-family="Arial, sans-serif" font-size="25" font-weight="800" fill="#F5F7FA">CyberLab</text>
  <text x="112" y="113" font-family="Arial, sans-serif" font-size="15" letter-spacing="2" fill="#9FB6C9">THREAT CONSOLE</text>
  <rect x="42" y="168" width="160" height="56" rx="8" fill="#09261D" stroke="#2EF7A3"/>
  <text x="86" y="203" font-family="Arial, sans-serif" font-size="20" font-weight="700" fill="#5CFFC1">Scanner</text>
  <text x="58" y="288" font-family="Arial, sans-serif" font-size="20" fill="#91AFC5">Dashboard</text>
  <text x="58" y="368" font-family="Arial, sans-serif" font-size="20" fill="#91AFC5">History</text>
  <text x="58" y="448" font-family="Arial, sans-serif" font-size="20" fill="#91AFC5">Network</text>
  <rect x="42" y="705" width="160" height="58" rx="8" fill="#07111D" stroke="#14384A"/>
  <text x="78" y="735" font-family="Arial, sans-serif" font-size="13" letter-spacing="2" fill="#9FB6C9">SYSTEM ONLINE</text>
  <text x="78" y="758" font-family="Arial, sans-serif" font-size="20" font-weight="800" fill="#F5F7FA">Live monitoring</text>
  <text x="690" y="112" text-anchor="middle" font-family="Arial, sans-serif" font-size="70" font-weight="900" fill="#F5F7FA">CyberLab Scanner</text>
  <text x="690" y="158" text-anchor="middle" font-family="Arial, sans-serif" font-size="20" fill="#9FB6C9">Real-time network scanning, risk analytics, and downloadable security reports.</text>
  <text x="292" y="218" font-family="Arial, sans-serif" font-size="15" letter-spacing="3" fill="#55FFC0">ATTACK SURFACE SCANNER</text>
  <rect x="292" y="262" width="860" height="110" rx="8" fill="#07111D" stroke="#1D465B"/>
  <rect x="322" y="296" width="570" height="48" rx="7" fill="#030A10" stroke="#184156"/>
  <text x="358" y="327" font-family="Arial, sans-serif" font-size="21" fill="#7F8A93">Enter IP address or domain</text>
  <rect x="908" y="296" width="140" height="48" rx="7" fill="#030A10" stroke="#184156"/>
  <text x="944" y="327" font-family="Arial, sans-serif" font-size="19" font-weight="700" fill="#D7E4ED">Quick scan</text>
  <rect x="1060" y="296" width="72" height="48" rx="8" fill="url(#button)"/>
  <text x="1096" y="327" text-anchor="middle" font-family="Arial, sans-serif" font-size="19" font-weight="900" fill="#02070B">Scan</text>
  <rect x="292" y="404" width="594" height="262" rx="8" fill="#08111D" stroke="#1D465B"/>
  <text x="322" y="452" font-family="Courier New, monospace" font-size="22" font-weight="700" fill="#F5F7FA">&gt; Terminal Activity</text>
  <text x="322" y="502" font-family="Courier New, monospace" font-size="18" fill="#9FB6C9">waiting for scan...</text>
  <rect x="910" y="404" width="242" height="150" rx="8" fill="#08111D" stroke="#1D465B"/>
  <text x="936" y="452" font-family="Arial, sans-serif" font-size="14" letter-spacing="3" fill="#9FB6C9">CURRENT RISK SCORE</text>
  <text x="936" y="518" font-family="Arial, sans-serif" font-size="58" font-weight="900" fill="#F5F7FA">0/100</text>
  <text x="936" y="552" font-family="Arial, sans-serif" font-size="19" fill="#9FB6C9">No assessment loaded</text>
  <defs>
    <pattern id="grid" width="64" height="64" patternUnits="userSpaceOnUse">
      <path d="M64 0H0V64" stroke="#133342" stroke-width="1"/>
    </pattern>
    <radialGradient id="glow" cx="0" cy="0" r="1" gradientUnits="userSpaceOnUse" gradientTransform="translate(980 120) rotate(137.772) scale(520 500)">
      <stop stop-color="#0C5F4D" stop-opacity="0.55"/>
      <stop offset="1" stop-color="#02070B" stop-opacity="0"/>
    </radialGradient>
    <linearGradient id="button" x1="1060" y1="296" x2="1132" y2="344" gradientUnits="userSpaceOnUse">
      <stop stop-color="#5CFFC1"/>
      <stop offset="1" stop-color="#43C6FF"/>
    </linearGradient>
  </defs>
</svg>
